PathFileType	4	(X/Y/Z)	C:\Users\WrightLab\Desktop\Jo\P2_Trial21.trc
DataRate	CameraRate	NumFrames	NumMarkers	Units	OrigDataRate	OrigDataStartFrame	OrigNumFrames
100.00	100.00	       18	19	mm	100.00	226	       600
Frame#	Time	Headset_Front			Headset_Back			Headset_Left			Headset_Right			Left_Shoulder			Right_Shoulder			Sternum			C7			Left Elbow			Right Elbow			Left Wrist			Right Wrist			Left ASIS			Right ASIS			S2			Left Knee			Right Knee			Left Ankle			Right Ankle			
		X1	Y1	Z1	X2	Y2	Z2	X3	Y3	Z3	X4	Y4	Z4	X5	Y5	Z5	X6	Y6	Z6	X7	Y7	Z7	X8	Y8	Z8	X9	Y9	Z9	X10	Y10	Z10	X11	Y11	Z11	X12	Y12	Z12	X13	Y13	Z13	X14	Y14	Z14	X15	Y15	Z15	X16	Y16	Z16	X17	Y17	Z17	X18	Y18	Z18	X19	Y19	Z19	

226	2.250	-568.62726	1454.82385	375.72302	-727.66028	1674.35144	230.55841	-588.00037	1571.97632	206.09157	-695.94568	1531.82593	405.90335	-640.17517	1423.06116	103.75588	-843.46472	1439.57886	345.81934	-705.72925	1304.61926	268.38953	-836.21686	1428.00464	164.89734	-576.73804	1141.46301	-9.14117										-668.18982	1001.66467	225.08458	-747.36212	1004.84412	339.18933	-931.83484	948.57159	123.66429	-788.31482	423.30215	44.64269	-826.11395	563.35791	406.58203	-838.59015	70.73405	87.18761				
227	2.260	-562.04498	1453.23291	380.45883	-719.75909	1671.76270	237.48183	-580.99908	1570.51868	212.72998	-688.50793	1529.77368	412.34448	-633.54926	1420.70032	110.74784	-835.49182	1438.37305	352.82126	-698.87695	1303.07532	274.26846	-830.12585	1428.51941	171.49030	-571.84613	1138.83191	-1.70741										-664.82086	1000.89587	230.41751	-741.34747	1003.93970	344.55734	-928.48822	947.70508	131.48592	-790.00629	425.84247	44.21367	-819.06995	564.11139	405.43921	-838.42224	70.68996	86.47249				
228	2.270	-554.37158	1452.05798	388.72272	-713.90637	1671.33105	244.16681	-575.34576	1569.34949	218.18710	-681.36444	1528.33655	418.62183	-627.93335	1419.69824	115.76670	-827.58826	1437.50159	359.81375	-692.46759	1300.65356	279.03253	-823.57849	1428.22656	178.50114	-569.57867	1136.03723	2.28295										-659.77625	1000.56512	234.34978	-735.60370	1002.92523	350.56128	-924.78394	946.76038	139.24420	-791.37665	426.15070	45.36792	-810.99939	563.14484	405.90106	-838.47186	71.33741	84.57892				
229	2.280	-547.78845	1450.19360	394.24878	-706.09692	1669.85193	250.96574	-568.18378	1568.13318	225.05132	-674.49359	1526.41858	425.60132	-621.53552	1418.05554	120.97307	-819.70483	1435.47534	366.25723	-685.82166	1299.20435	286.10825	-816.96277	1427.75037	184.98756	-562.55249	1133.42639	10.21886										-655.42120	999.74969	240.17867	-730.82147	1002.71240	356.13489	-920.80573	945.72913	147.15213	-792.76068	426.91888	47.24041	-803.32220	563.13885	410.23105	-839.17377	71.35804	83.23025				
230	2.290	-540.82953	1447.12915	399.45108	-699.20459	1668.34656	258.14963	-559.43323	1565.74182	232.45439	-667.36865	1524.40723	431.91641	-614.96124	1416.38159	127.54364	-812.77411	1434.99072	373.61877	-680.49127	1298.04810	291.17896	-810.34717	1427.32690	191.46245	-556.80713	1132.19946	17.90964										-651.95172	998.02740	245.71259	-724.62726	1001.93915	362.35016	-916.29431	944.88232	153.60744	-794.20453	426.53745	51.04995	-794.97949	562.37384	415.72778	-838.77722	70.95533	82.95209				
231	2.300	-533.58667	1446.30286	408.23117	-691.21368	1666.47925	265.11627	-552.61163	1565.17688	238.61830	-660.40521	1522.74512	438.19269	-608.79199	1415.10217	134.39468	-805.27454	1434.76489	380.88525	-673.79688	1296.82935	297.06085	-803.77710	1426.80005	198.06825	-551.85046	1129.45374	24.43427										-646.45654	996.91260	252.20905	-719.71802	1001.30334	369.00198	-911.42932	943.57074	161.36047	-794.68066	427.69168	53.40727	-787.33826	562.52582	422.39716	-838.87964	71.17879	82.79319				
232	2.310	-527.30646	1444.30811	413.03070	-684.46387	1666.43237	271.88159	-545.19397	1563.99048	245.98993	-653.43579	1520.95972	445.03253	-602.62866	1413.90881	140.24959	-798.23956	1433.85645	387.47845	-667.87518	1295.71484	302.43094	-797.11896	1426.38647	204.81894	-546.28314	1128.19482	31.80782										-641.34247	995.61414	258.18829	-713.80811	1000.05817	375.60251	-906.05432	942.89343	168.15213	-793.56805	427.28366	56.61076	-779.60303	562.03394	430.28339	-838.82410	71.09792	82.30022				
233	2.320	-520.84009	1441.43188	418.99130	-677.20062	1665.11450	279.16656	-538.38788	1562.70923	252.35127	-647.07074	1519.24561	451.45816	-596.67145	1413.04651	145.83774	-790.87335	1433.58801	394.63351	-660.97095	1294.56714	309.03989	-790.76245	1425.63000	211.52405	-540.22351	1126.76831	38.24960										-635.28314	994.14093	265.51193	-707.56476	998.82349	382.20612	-900.45441	941.95648	175.54498	-792.37683	428.59109	59.08677	-772.20483	561.18188	435.80972	-838.39874	71.70170	81.40765				
234	2.330	-513.75848	1441.00024	426.88147	-668.90936	1664.23828	286.32962	-531.31561	1561.70728	259.63983	-640.16888	1518.01892	457.79959	-590.49951	1412.01367	151.99910	-783.75293	1432.66235	401.32492	-654.96960	1294.21692	316.30432	-784.29358	1425.00708	218.71024	-532.77563	1126.29834	46.59703										-628.51636	993.33002	271.42426	-701.17609	998.00208	388.74136	-894.27899	941.16064	182.93242	-791.42670	429.31592	62.29366	-765.04279	561.30530	442.00397	-838.06134	72.11558	80.16920				
235	2.340	-507.37399	1438.82373	432.52255	-662.59167	1664.48853	293.19730	-525.76483	1561.31836	265.63956	-633.35260	1516.47290	464.29269	-584.42316	1411.43542	158.18541	-776.71643	1431.75415	408.30231	-648.35333	1293.03101	321.50922	-777.96942	1424.02039	225.71228	-527.16357	1124.90735	53.30228										-622.35046	991.77545	278.06870	-693.85352	996.83563	395.17780	-887.82910	940.42285	190.59074	-788.49237	429.39468	66.05062	-757.84576	560.13556	448.89151	-838.36029	73.04737	78.70957				
236	2.350	-501.70746	1437.25647	437.20819	-654.40515	1663.51514	300.41214	-518.88141	1560.58594	272.30899	-626.70880	1515.14087	470.31992	-578.90948	1411.34094	164.99545	-769.73584	1431.47791	415.20905	-641.26178	1292.86304	329.37433	-771.68585	1423.21960	232.93776	-521.47632	1125.11328	59.09803										-614.85474	991.14661	282.80582	-686.62189	995.77081	402.23007	-880.91040	940.13007	198.02907	-785.24854	429.87668	69.84677	-749.78491	557.93427	455.72079	-838.55573	74.26675	78.08411				
237	2.360	-494.70758	1435.58984	442.58319	-647.11884	1663.49146	307.30878	-512.18091	1560.04358	278.30826	-620.22479	1514.31750	476.78201	-572.31183	1411.62354	171.53688	-763.09143	1431.20105	422.60550	-634.77313	1292.47424	335.94171	-765.49872	1422.39148	240.26089	-513.74615	1124.96960	66.13883										-608.03101	990.09662	290.59256	-678.72345	995.03790	409.36383	-873.72870	939.73267	205.29211	-781.81006	431.26117	73.18888	-740.74792	556.59943	462.07672	-838.55322	76.02095	78.13728				
238	2.370	-487.68549	1435.47791	450.24072	-640.42200	1663.98865	313.69211	-505.71219	1559.26953	285.18268	-613.14636	1513.86523	483.21170	-567.26337	1410.67847	178.20177	-755.68518	1431.61060	429.86569	-627.86084	1291.63525	341.56903	-759.30688	1421.93689	247.47868	-506.29550	1125.39441	73.41561										-599.35083	990.79382	297.63843	-670.67609	994.19122	416.24902	-866.33447	938.91168	213.80818	-778.05743	432.33435	77.43375	-732.48798	555.84680	468.77728	-837.87665	77.02867	78.11295				
239	2.380	-481.55634	1435.20459	455.35492	-633.19293	1663.82166	320.29471	-499.08865	1559.36353	291.38992	-606.59680	1514.14661	489.83304	-561.02301	1411.96228	184.70140	-749.10034	1431.41516	437.30359	-620.54327	1292.31726	348.56360	-753.20398	1421.15356	255.01859	-499.37894	1125.23987	79.41115										-592.29816	989.92218	305.60587	-661.43500	994.06378	423.73068	-858.35144	938.75397	221.55498	-774.32623	433.87039	81.04463	-722.95959	553.37958	474.69400	-837.48694	79.32555	76.88754				
240	2.390	-475.24838	1435.05359	460.99377	-626.64185	1664.23682	326.89072	-492.92661	1559.06299	297.44467	-598.94336	1514.10938	496.15335	-555.51703	1412.08960	191.06161	-742.24713	1430.25232	444.98767	-613.99042	1293.04468	356.06390	-747.02954	1420.51758	262.66476	-491.88205	1127.18811	85.85639										-583.16595	989.55328	311.90543	-652.62347	994.07758	431.39581	-849.96503	938.64557	229.16266	-769.45227	434.81750	87.01346	-713.56201	551.70123	481.15573	-837.16882	81.04388	77.47275				
241	2.400	-467.24344	1435.75403	470.32645	-620.62231	1664.45947	333.30386	-486.70728	1559.10022	303.14490	-591.71936	1515.25964	503.24414	-550.12872	1412.74963	197.55873	-735.23792	1431.03540	452.57147	-605.53186	1294.00427	363.74658	-741.01086	1420.06995	270.40131	-485.85284	1127.45105	91.44838										-573.54492	989.64276	317.85162	-643.07550	993.57990	437.95352	-841.46729	937.44482	238.40181	-765.21246	436.05292	91.71996	-703.49951	549.42975	486.75867	-835.22614	83.47227	76.72392				
242	2.410	-460.54172	1436.83716	473.36368	-614.50702	1665.12329	339.92770	-480.53790	1559.51721	309.42313	-584.63055	1516.75000	510.44199	-544.65796	1413.46277	204.73143	-727.98657	1430.55017	460.33511	-597.95343	1294.24365	369.96732	-735.14917	1419.73828	278.29861	-478.70370	1129.55872	97.82050										-564.46222	989.35913	324.58350	-633.63312	993.32404	445.42816	-832.81042	937.38293	246.42612	-759.34747	436.83197	97.88495	-694.16187	547.84204	492.87927	-833.85559	86.85114	76.03715				
243	2.420	-452.84341	1439.48792	482.70917	-608.22272	1665.73474	345.87225	-474.42438	1560.02271	315.43854	-576.66528	1519.17053	517.43512	-538.88611	1414.49768	211.31874	-721.47076	1430.05457	468.48563	-590.96436	1295.71924	376.93018	-729.14453	1419.76917	286.21313	-473.85736	1131.39307	101.93832										-555.88513	990.98590	331.37140	-622.94617	993.44647	452.49661	-824.23096	937.47546	254.51974	-753.74860	438.89987	103.79269	-684.19342	545.97723	499.22006	-832.73438	90.19236	76.88036				
